<svg xmlns="http://www.w3.org/2000/svg" viewBox="0 0 48 48" fill="none">
  <rect width="48" height="48" rx="14" fill="url(#g)"/>
  <path d="M24 10c-4.5 0-8 3.5-8 8 0 3.2 1.9 6 4.6 7.3C18.2 26.8 16 29.7 16 33c0 4.4 3.6 8 8 8s8-3.6 8-8c0-3.3-2.2-6.2-5.4-7.7C29.1 24 31 21.2 31 18c0-4.5-3.5-8-8-8z" fill="white" fill-opacity="0.95"/>
  <circle cx="21" cy="17" r="1.5" fill="#059669"/>
  <circle cx="27" cy="17" r="1.5" fill="#059669"/>
  <defs>
    <linearGradient id="g" x1="0" y1="0" x2="48" y2="48" gradientUnits="userSpaceOnUse">
      <stop stop-color="#059669"/>
      <stop offset="0.5" stop-color="#0D9488"/>
      <stop offset="1" stop-color="#14B8A6"/>
    </linearGradient>
  </defs>
</svg>
